<svg xmlns="http://www.w3.org/2000/svg" width="420mm" height="297mm" viewBox="0 0 1400 990">
<defs><pattern id="hatch" width="7" height="7" patternUnits="userSpaceOnUse"><path d="M0 7L7 0" stroke="#86928b" stroke-width=".6"/></pattern><marker id="arr" viewBox="0 0 8 8" refX="4" refY="4" markerWidth="6" markerHeight="6" orient="auto-start-reverse"><path d="M8 4L0 1L0 7Z" fill="#33443d"/></marker></defs>
<rect width="1400" height="990" fill="#f6f5ef"/><g stroke="#33443d" fill="none" stroke-width="1.2"><rect x="24" y="24" width="1352" height="942"/></g>
<text x="55" y="72" font-family="Arial,sans-serif" font-size="30" text-anchor="start" fill="#25382e">OCP / S1</text>
<text x="55" y="103" font-family="Arial,sans-serif" font-size="15" text-anchor="start" fill="#25382e">SUBMERSIBLE WATER MONITOR · MECHANICAL CONCEPT</text>
<text x="1340" y="70" font-family="Arial,sans-serif" font-size="17" text-anchor="end" fill="#25382e">GENERAL ARRANGEMENT</text>
<text x="1340" y="100" font-family="Arial,sans-serif" font-size="13" text-anchor="end" fill="#25382e">REV A / 12 SEP 2026 / ALL DIMENSIONS mm</text>
<line x1="24" y1="125" x2="1376" y2="125" stroke="#33443d" stroke-width="1"/>
<text x="275" y="170" font-family="Arial,sans-serif" font-size="16" text-anchor="middle" fill="#25382e">FRONT ELEVATION</text>
<line x1="275" y1="205" x2="275" y2="667" stroke="#33443d" stroke-width="1" stroke-dasharray="6 5"/>
<rect x="229.1" y="281.9" width="91.8" height="214.20000000000002" fill="#e6e8e1" stroke="#33443d" stroke-width="1.2"/>
<rect x="217.88" y="496.1" width="114.24000000000001" height="12.24" fill="#dde2da" stroke="#33443d" stroke-width="1.2"/>
<rect x="217.88" y="269.65999999999997" width="114.24000000000001" height="12.24" fill="#dde2da" stroke="#33443d" stroke-width="1.2"/>
<rect x="233.38400000000001" y="482.84000000000003" width="83.232" height="13.26" fill="none" stroke="#33443d" stroke-width="1.2"/>
<rect x="233.38400000000001" y="281.9" width="83.232" height="13.26" fill="none" stroke="#33443d" stroke-width="1.2"/>
<rect x="233.18" y="491.0" width="2.04" height="2.04" fill="#33443d" stroke="#33443d" stroke-width="1.2"/>
<rect x="314.78" y="491.0" width="2.04" height="2.04" fill="#33443d" stroke="#33443d" stroke-width="1.2"/>
<rect x="233.18" y="483.86" width="2.04" height="2.04" fill="#33443d" stroke="#33443d" stroke-width="1.2"/>
<rect x="314.78" y="483.86" width="2.04" height="2.04" fill="#33443d" stroke="#33443d" stroke-width="1.2"/>
<rect x="233.18" y="290.06" width="2.04" height="2.04" fill="#33443d" stroke="#33443d" stroke-width="1.2"/>
<rect x="314.78" y="290.06" width="2.04" height="2.04" fill="#33443d" stroke="#33443d" stroke-width="1.2"/>
<rect x="233.18" y="282.91999999999996" width="2.04" height="2.04" fill="#33443d" stroke="#33443d" stroke-width="1.2"/>
<rect x="314.78" y="282.91999999999996" width="2.04" height="2.04" fill="#33443d" stroke="#33443d" stroke-width="1.2"/>
<rect x="263.78" y="252.32" width="22.44" height="17.34" fill="none" stroke="#33443d" stroke-width="1.2"/>
<rect x="265.82" y="244.16" width="18.36" height="8.16" fill="none" stroke="#33443d" stroke-width="1.2"/>
<rect x="270.92" y="232.94" width="8.16" height="11.22" fill="none" stroke="#33443d" stroke-width="1.2"/>
<rect x="221.96" y="265.58" width="4.08" height="248.88" fill="none" stroke="#33443d" stroke-width="1.2"/>
<rect x="323.96" y="265.58" width="4.08" height="248.88" fill="none" stroke="#33443d" stroke-width="1.2"/>
<rect x="219.92000000000002" y="620.54" width="110.16" height="8.16" fill="none" stroke="#33443d" stroke-width="1.2"/>
<rect x="219.92000000000002" y="510.38" width="110.16" height="8.16" fill="none" stroke="#33443d" stroke-width="1.2"/>
<rect x="220.43" y="518.54" width="5.1" height="102.0" fill="none" stroke="#33443d" stroke-width="1.2"/>
<rect x="272.45" y="518.54" width="5.1" height="102.0" fill="none" stroke="#33443d" stroke-width="1.2"/>
<rect x="324.47" y="518.54" width="5.1" height="102.0" fill="none" stroke="#33443d" stroke-width="1.2"/>
<rect x="241.34" y="508.34000000000003" width="22.44" height="95.88" fill="#dde2da" stroke="#33443d" stroke-width="1.2"/>
<rect x="243.023" y="604.22" width="19.073999999999998" height="4.08" fill="#63796a" stroke="#33443d" stroke-width="1.2"/>
<rect x="290.3" y="508.34000000000003" width="14.280000000000001" height="102.0" fill="#dde2da" stroke="#33443d" stroke-width="1.2"/>
<rect x="291.371" y="610.34" width="12.138" height="4.08" fill="#63796a" stroke="#33443d" stroke-width="1.2"/>
<rect x="225.01999999999998" y="438.98" width="99.96000000000001" height="14.280000000000001" fill="none" stroke="#33443d" stroke-width="1.2"/>
<rect x="225.01999999999998" y="313.52" width="99.96000000000001" height="14.280000000000001" fill="none" stroke="#33443d" stroke-width="1.2"/>
<text x="275" y="368.6" font-family="Arial,sans-serif" font-size="19" text-anchor="middle" fill="#25382e">OCP</text>
<text x="275" y="389.0" font-family="Arial,sans-serif" font-size="10" text-anchor="middle" fill="#25382e">S1 / FIELD NODE</text>
<line x1="211.76" y1="628.7" x2="159" y2="628.7" stroke="#33443d" stroke-width="1"/>
<line x1="211.76" y1="232.94" x2="159" y2="232.94" stroke="#33443d" stroke-width="1"/>
<path d="M170 628.7 L170 232.94" fill="none" stroke="#33443d" stroke-width=".8" marker-start="url(#arr)" marker-end="url(#arr)"/>
<text x="178.0" y="422.82000000000005" font-family="Arial,sans-serif" font-size="13" text-anchor="start" fill="#25382e">388</text>
<line x1="217.88" y1="653.7" x2="217.88" y2="683.7" stroke="#33443d" stroke-width="1"/>
<line x1="332.12" y1="653.7" x2="332.12" y2="683.7" stroke="#33443d" stroke-width="1"/>
<path d="M217.88 673.7 L332.12 673.7" fill="none" stroke="#33443d" stroke-width=".8" marker-start="url(#arr)" marker-end="url(#arr)"/>
<text x="283.0" y="665.7" font-family="Arial,sans-serif" font-size="13" text-anchor="start" fill="#25382e">Ø112</text>
<path d="M358 496.1 L358 281.9" fill="none" stroke="#33443d" stroke-width=".8" marker-start="url(#arr)" marker-end="url(#arr)"/>
<text x="366.0" y="381.0" font-family="Arial,sans-serif" font-size="13" text-anchor="start" fill="#25382e">210</text>
<text x="725" y="170" font-family="Arial,sans-serif" font-size="16" text-anchor="middle" fill="#25382e">SECTION A–A</text>
<line x1="725" y1="205" x2="725" y2="667" stroke="#33443d" stroke-width="1" stroke-dasharray="6 5"/>
<rect x="679.1" y="281.9" width="91.8" height="214.20000000000002" fill="url(#hatch)" stroke="#33443d" stroke-width="1.2"/>
<rect x="683.18" y="281.9" width="83.64" height="214.20000000000002" fill="#f6f5ef" stroke="#33443d" stroke-width="1.2"/>
<rect x="667.88" y="496.1" width="114.24000000000001" height="12.24" fill="url(#hatch)" stroke="#33443d" stroke-width="1.2"/>
<rect x="667.88" y="269.65999999999997" width="114.24000000000001" height="12.24" fill="url(#hatch)" stroke="#33443d" stroke-width="1.2"/>
<rect x="683.384" y="482.84000000000003" width="83.232" height="13.26" fill="url(#hatch)" stroke="#33443d" stroke-width="1.2"/>
<rect x="683.384" y="281.9" width="83.232" height="13.26" fill="url(#hatch)" stroke="#33443d" stroke-width="1.2"/>
<rect x="683.18" y="491.0" width="2.04" height="2.04" fill="#33443d" stroke="#33443d" stroke-width="1.2"/>
<rect x="764.78" y="491.0" width="2.04" height="2.04" fill="#33443d" stroke="#33443d" stroke-width="1.2"/>
<rect x="683.18" y="483.86" width="2.04" height="2.04" fill="#33443d" stroke="#33443d" stroke-width="1.2"/>
<rect x="764.78" y="483.86" width="2.04" height="2.04" fill="#33443d" stroke="#33443d" stroke-width="1.2"/>
<rect x="683.18" y="290.06" width="2.04" height="2.04" fill="#33443d" stroke="#33443d" stroke-width="1.2"/>
<rect x="764.78" y="290.06" width="2.04" height="2.04" fill="#33443d" stroke="#33443d" stroke-width="1.2"/>
<rect x="683.18" y="282.91999999999996" width="2.04" height="2.04" fill="#33443d" stroke="#33443d" stroke-width="1.2"/>
<rect x="764.78" y="282.91999999999996" width="2.04" height="2.04" fill="#33443d" stroke="#33443d" stroke-width="1.2"/>
<rect x="713.78" y="252.32" width="22.44" height="17.34" fill="none" stroke="#33443d" stroke-width="1.2"/>
<rect x="715.82" y="244.16" width="18.36" height="8.16" fill="none" stroke="#33443d" stroke-width="1.2"/>
<rect x="720.92" y="232.94" width="8.16" height="11.22" fill="none" stroke="#33443d" stroke-width="1.2"/>
<rect x="671.96" y="265.58" width="4.08" height="248.88" fill="none" stroke="#33443d" stroke-width="1.2"/>
<rect x="773.96" y="265.58" width="4.08" height="248.88" fill="none" stroke="#33443d" stroke-width="1.2"/>
<rect x="669.92" y="620.54" width="110.16" height="8.16" fill="none" stroke="#33443d" stroke-width="1.2"/>
<rect x="669.92" y="510.38" width="110.16" height="8.16" fill="none" stroke="#33443d" stroke-width="1.2"/>
<rect x="670.43" y="518.54" width="5.1" height="102.0" fill="none" stroke="#33443d" stroke-width="1.2"/>
<rect x="722.45" y="518.54" width="5.1" height="102.0" fill="none" stroke="#33443d" stroke-width="1.2"/>
<rect x="774.47" y="518.54" width="5.1" height="102.0" fill="none" stroke="#33443d" stroke-width="1.2"/>
<rect x="691.34" y="508.34000000000003" width="22.44" height="95.88" fill="#dde2da" stroke="#33443d" stroke-width="1.2"/>
<rect x="693.023" y="604.22" width="19.073999999999998" height="4.08" fill="#63796a" stroke="#33443d" stroke-width="1.2"/>
<rect x="740.3" y="508.34000000000003" width="14.280000000000001" height="102.0" fill="#dde2da" stroke="#33443d" stroke-width="1.2"/>
<rect x="741.371" y="610.34" width="12.138" height="4.08" fill="#63796a" stroke="#33443d" stroke-width="1.2"/>
<rect x="700.52" y="312.5" width="48.96" height="153.0" fill="#d0dbcf" stroke="#33443d" stroke-width="1.2"/>
<rect x="708.68" y="432.86" width="32.64" height="22.44" fill="#879c89" stroke="#33443d" stroke-width="1.2"/>
<rect x="708.68" y="386.96" width="32.64" height="22.44" fill="#879c89" stroke="#33443d" stroke-width="1.2"/>
<rect x="708.68" y="336.98" width="32.64" height="22.44" fill="#879c89" stroke="#33443d" stroke-width="1.2"/>
<rect x="697.46" y="306.38" width="3.06" height="167.28" fill="none" stroke="#33443d" stroke-width="1.2"/>
<rect x="749.48" y="306.38" width="3.06" height="167.28" fill="none" stroke="#33443d" stroke-width="1.2"/>
<line x1="661.76" y1="628.7" x2="609" y2="628.7" stroke="#33443d" stroke-width="1"/>
<line x1="661.76" y1="232.94" x2="609" y2="232.94" stroke="#33443d" stroke-width="1"/>
<path d="M620 628.7 L620 232.94" fill="none" stroke="#33443d" stroke-width=".8" marker-start="url(#arr)" marker-end="url(#arr)"/>
<text x="628.0" y="422.82000000000005" font-family="Arial,sans-serif" font-size="13" text-anchor="start" fill="#25382e">388</text>
<line x1="667.88" y1="653.7" x2="667.88" y2="683.7" stroke="#33443d" stroke-width="1"/>
<line x1="782.12" y1="653.7" x2="782.12" y2="683.7" stroke="#33443d" stroke-width="1"/>
<path d="M667.88 673.7 L782.12 673.7" fill="none" stroke="#33443d" stroke-width=".8" marker-start="url(#arr)" marker-end="url(#arr)"/>
<text x="733.0" y="665.7" font-family="Arial,sans-serif" font-size="13" text-anchor="start" fill="#25382e">Ø112</text>
<path d="M808 496.1 L808 281.9" fill="none" stroke="#33443d" stroke-width=".8" marker-start="url(#arr)" marker-end="url(#arr)"/>
<text x="816.0" y="381.0" font-family="Arial,sans-serif" font-size="13" text-anchor="start" fill="#25382e">210</text>
<text x="1150" y="170" font-family="Arial,sans-serif" font-size="16" text-anchor="middle" fill="#25382e">TOP / PORT LAYOUT</text>
<circle cx="1150" cy="330" r="78.39999999999999" fill="none" stroke="#33443d" stroke-width="1.2"/>
<circle cx="1150" cy="330" r="62.99999999999999" fill="none" stroke="#33443d" stroke-width="1.2"/>
<circle cx="1150" cy="330" r="57.4" fill="none" stroke="#33443d" stroke-width="1.2"/>
<line x1="1055" y1="330" x2="1245" y2="330" stroke="#33443d" stroke-width="1" stroke-dasharray="6 5"/>
<line x1="1150" y1="235" x2="1150" y2="425" stroke="#33443d" stroke-width="1" stroke-dasharray="6 5"/>
<circle cx="1199.4974746830583" cy="379.49747468305833" r="3.15" fill="none" stroke="#33443d" stroke-width="1.2"/>
<circle cx="1100.5025253169417" cy="379.49747468305833" r="3.15" fill="none" stroke="#33443d" stroke-width="1.2"/>
<circle cx="1100.5025253169417" cy="280.50252531694167" r="3.15" fill="none" stroke="#33443d" stroke-width="1.2"/>
<circle cx="1199.4974746830583" cy="280.50252531694167" r="3.15" fill="none" stroke="#33443d" stroke-width="1.2"/>
<circle cx="1119.2" cy="299.2" r="12.6" fill="none" stroke="#33443d" stroke-width="1.2"/>
<circle cx="1180.8" cy="299.2" r="12.6" fill="none" stroke="#33443d" stroke-width="1.2"/>
<circle cx="1180.8" cy="360.8" r="12.6" fill="none" stroke="#33443d" stroke-width="1.2"/>
<circle cx="1119.2" cy="360.8" r="12.6" fill="none" stroke="#33443d" stroke-width="1.2"/>
<text x="1022" y="451" font-family="Arial,sans-serif" font-size="14" text-anchor="start" fill="#25382e">4 × Ø18 provisional sensor ports</text>
<text x="1022" y="475" font-family="Arial,sans-serif" font-size="14" text-anchor="start" fill="#25382e">Centres: (±22, ±22)</text>
<text x="1022" y="499" font-family="Arial,sans-serif" font-size="14" text-anchor="start" fill="#25382e">4 × Ø4.5 tie-rod holes / PCD 100</text>
<text x="1022" y="554" font-family="Arial,sans-serif" font-size="15" text-anchor="start" fill="#25382e">SEAL DETAIL / CONCEPT</text>
<rect x="1040" y="575" width="175" height="18" fill="url(#hatch)" stroke="#33443d" stroke-width="1.2"/>
<rect x="1040" y="607" width="175" height="30" fill="url(#hatch)" stroke="#33443d" stroke-width="1.2"/>
<circle cx="1080" cy="604" r="9" fill="#63796a" stroke="#33443d" stroke-width="1.2"/>
<circle cx="1170" cy="604" r="9" fill="#63796a" stroke="#33443d" stroke-width="1.2"/>
<text x="1022" y="665" font-family="Arial,sans-serif" font-size="14" text-anchor="start" fill="#25382e">2 radial seals at each cap</text>
<text x="1022" y="689" font-family="Arial,sans-serif" font-size="12" text-anchor="start" fill="#25382e">Grooves and squeeze: verify before manufacture</text>
<line x1="24" y1="720" x2="1376" y2="720" stroke="#33443d" stroke-width="1"/>
<text x="55" y="752" font-family="Arial,sans-serif" font-size="15" text-anchor="start" fill="#25382e">ASSEMBLY INDEX</text>
<text x="55" y="782" font-family="Arial,sans-serif" font-size="13" text-anchor="start" fill="#25382e">01  Tube / Ø90 OD · Ø82 ID · L210</text>
<text x="55" y="807" font-family="Arial,sans-serif" font-size="13" text-anchor="start" fill="#25382e">02  Top cap / cable entry</text>
<text x="55" y="832" font-family="Arial,sans-serif" font-size="13" text-anchor="start" fill="#25382e">03  Bottom cap / 4 sensor adapters</text>
<text x="55" y="857" font-family="Arial,sans-serif" font-size="13" text-anchor="start" fill="#25382e">04  Radial seals / 4 total</text>
<text x="55" y="882" font-family="Arial,sans-serif" font-size="13" text-anchor="start" fill="#25382e">05  Cable gland / Ø8 cable</text>
<text x="415" y="782" font-family="Arial,sans-serif" font-size="13" text-anchor="start" fill="#25382e">06  M4 tie rods / 4 total</text>
<text x="415" y="807" font-family="Arial,sans-serif" font-size="13" text-anchor="start" fill="#25382e">07  Mounting collars + rear plate</text>
<text x="415" y="832" font-family="Arial,sans-serif" font-size="13" text-anchor="start" fill="#25382e">08  PCB / 48 × 150 + guide rails</text>
<text x="415" y="857" font-family="Arial,sans-serif" font-size="13" text-anchor="start" fill="#25382e">09  Optical dissolved oxygen probe</text>
<text x="415" y="882" font-family="Arial,sans-serif" font-size="13" text-anchor="start" fill="#25382e">10  pH probe</text>
<text x="775" y="782" font-family="Arial,sans-serif" font-size="13" text-anchor="start" fill="#25382e">11  Conductivity probe</text>
<text x="775" y="807" font-family="Arial,sans-serif" font-size="13" text-anchor="start" fill="#25382e">12  Temperature probe</text>
<text x="775" y="832" font-family="Arial,sans-serif" font-size="13" text-anchor="start" fill="#25382e">13  Open protective cage / Ø108</text>
<line x1="24" y1="914" x2="1376" y2="914" stroke="#33443d" stroke-width="1"/>
<text x="55" y="943" font-family="Arial,sans-serif" font-size="13" text-anchor="start" fill="#25382e">CONCEPT ONLY · NOT FOR MANUFACTURE · SENSOR ENVELOPES · NO VERIFIED PRESSURE RATING</text>
<text x="1345" y="943" font-family="Arial,sans-serif" font-size="13" text-anchor="end" fill="#25382e">OCP–S1–GA–001 / A3 / NTS</text>
</svg>